<?xml version="1.0" encoding="UTF-8" standalone="no"?>
<!-- Created with Inkscape (http://www.inkscape.org/) -->

<svg
   width="210mm"
   height="297mm"
   viewBox="0 0 210 297"
   version="1.1"
   id="svg5"
   xml:space="preserve"
   inkscape:version="1.2.2 (732a01da63, 2022-12-09)"
   xmlns:inkscape="http://www.inkscape.org/namespaces/inkscape"
   xmlns:sodipodi="http://sodipodi.sourceforge.net/DTD/sodipodi-0.dtd"
   xmlns="http://www.w3.org/2000/svg"
   xmlns:svg="http://www.w3.org/2000/svg"><sodipodi:namedview
     id="namedview7"
     pagecolor="#ffffff"
     bordercolor="#000000"
     borderopacity="0.25"
     inkscape:showpageshadow="2"
     inkscape:pageopacity="0.0"
     inkscape:pagecheckerboard="0"
     inkscape:deskcolor="#d1d1d1"
     inkscape:document-units="mm"
     showgrid="false"
     inkscape:zoom="0.71624579"
     inkscape:cx="295.28969"
     inkscape:cy="473.99929"
     inkscape:window-width="1920"
     inkscape:window-height="991"
     inkscape:window-x="-9"
     inkscape:window-y="-9"
     inkscape:window-maximized="1"
     inkscape:current-layer="layer1" /><defs
     id="defs2" /><g
     inkscape:label="Camada 1"
     inkscape:groupmode="layer"
     id="layer1"><path
       style="fill:#000000;stroke-width:0.158721"
       d="m 56.395874,170.23266 c -2.111365,-0.35441 -4.480446,-1.67734 -5.988973,-3.34432 -1.002089,-1.10734 -2.000342,-2.92906 -2.42104,-4.41817 -0.279919,-0.99081 -0.291469,-2.95006 -0.291469,-49.44174 V 64.618393 l 0.432423,-1.26977 c 1.115985,-3.277 3.449596,-5.716239 6.542868,-6.839036 1.469445,-0.53338 3.179928,-0.700237 7.178278,-0.700237 h 3.52757 l 0.0478,-3.704318 0.0478,-3.704318 0.45443,-0.655267 c 0.28366,-0.40903 0.75761,-0.806352 1.26125,-1.057324 0.735,-0.366265 0.98422,-0.40198 2.79936,-0.401173 2.36347,0.0011 2.99797,0.150269 3.82816,0.900293 0.95768,0.865203 1.10072,1.566604 1.10072,5.397126 v 3.224981 h 4.28548 4.28548 l 0.003,-3.610913 c 0.003,-3.445691 0.0189,-3.63966 0.35847,-4.239197 0.19572,-0.345555 0.66496,-0.845528 1.04275,-1.11105 l 0.68689,-0.482766 h 2.59156 2.59156 l 0.68689,0.482766 c 0.37779,0.265522 0.84703,0.765495 1.04275,1.11105 0.33958,0.599537 0.35598,0.793506 0.35848,4.239197 l 0.003,3.610913 h 4.28548 4.285479 l 9.6e-4,-3.29347 c 4.8e-4,-1.811408 0.0758,-3.563264 0.16738,-3.893013 0.21667,-0.780228 1.0142,-1.677271 1.81439,-2.040791 0.51427,-0.233627 1.05118,-0.289709 2.80055,-0.292527 2.06252,-0.0033 2.20407,0.01729 3.01025,0.438451 0.68484,0.357761 0.93013,0.603062 1.2879,1.287896 l 0.44193,0.84596 v 3.473747 3.473747 h 4.28549 4.28548 v -3.473747 -3.473747 l 0.44193,-0.84596 c 0.35777,-0.684834 0.60307,-0.930135 1.2879,-1.287896 0.80618,-0.421156 0.94773,-0.441773 3.01026,-0.438451 1.74936,0.0028 2.28627,0.0589 2.80054,0.292527 0.80019,0.36352 1.59772,1.260563 1.81439,2.040791 0.0916,0.329749 0.16689,2.081605 0.16738,3.893013 l 6e-4,3.29347 h 4.28548 4.28548 l 0.002,-3.610913 c 0.002,-3.445691 0.0189,-3.63966 0.35848,-4.239197 0.19572,-0.345555 0.66495,-0.845528 1.04275,-1.11105 l 0.68689,-0.482766 h 2.59155 2.59157 l 0.68689,0.482766 c 0.37778,0.265522 0.84703,0.765495 1.04275,1.11105 0.33957,0.599537 0.35598,0.793506 0.35847,4.239197 l 0.002,3.610913 h 4.28548 4.28548 v -3.224981 c 0,-3.830522 0.14305,-4.531923 1.10072,-5.397126 0.83019,-0.750024 1.46469,-0.899244 3.82816,-0.900293 1.80677,-7.8e-4 2.06657,0.03601 2.78666,0.394846 1.61651,0.805536 1.80775,1.412627 1.80775,5.738728 v 3.388826 h 3.53571 c 1.94465,0 4.12751,0.07421 4.8508,0.164898 2.46377,0.308931 4.43336,1.265732 6.20077,3.012245 1.22689,1.21239 2.07634,2.59617 2.67773,4.36213 l 0.43243,1.26977 v 48.330677 c 0,39.97264 -0.037,48.48165 -0.21371,49.20366 -0.11754,0.48013 -0.52193,1.51579 -0.89863,2.30145 -1.21483,2.53365 -3.31396,4.38885 -6.0908,5.383 l -1.36782,0.4897 -58.48886,0.0219 c -32.503329,0.0122 -58.853969,-0.0394 -59.310663,-0.11609 z m 117.103296,-3.3181 c 3.08677,-0.57237 5.44345,-3.09641 5.85862,-6.27468 0.1117,-0.85505 0.15068,-13.9908 0.12032,-40.54834 l -0.0449,-39.283557 h -64.2028 -64.202837 l -0.04284,39.442277 c -0.02882,26.53819 0.01082,39.80578 0.121164,40.55333 0.440655,2.98526 2.830982,5.52806 5.732204,6.09783 1.01341,0.19902 115.589029,0.21193 116.661099,0.0131 z M 64.877431,161.13327 c -1.16737,-0.41664 -1.95045,-1.19197 -2.32066,-2.2977 -0.12205,-0.36452 -0.18014,-2.42392 -0.17909,-6.34886 0.002,-5.80854 0.002,-5.80944 0.38512,-6.63315 0.47246,-1.01476 1.37896,-1.71076 2.54284,-1.95238 0.57285,-0.11893 3.70932,-0.1599 9.78944,-0.12789 8.8186,0.0464 8.9556,0.052 9.58141,0.38969 0.81023,0.43721 1.42483,1.0862 1.73752,1.83474 0.20832,0.4987 0.24596,1.51894 0.24301,6.58694 -0.004,6.68767 -0.007,6.71034 -1.12845,7.7757 -1.05982,1.00696 -0.97698,0.99948 -10.99053,0.99179 -7.14545,-0.005 -9.19267,-0.0519 -9.66061,-0.21888 z m 18.41236,-8.54351 0.0418,-5.35685 h -8.81115 -8.81115 v 5.29071 c 0,2.9099 0.0482,5.33894 0.10715,5.39788 0.0589,0.0589 4.00515,0.0887 8.76936,0.0661 l 8.66221,-0.041 z m 8.70519,8.57317 c -0.84059,-0.22237 -2.07585,-1.43722 -2.30203,-2.26399 -0.24558,-0.89769 -0.23802,-11.81718 0.009,-12.64083 0.26744,-0.89265 1.11978,-1.80788 1.99989,-2.14747 0.69822,-0.2694 1.42478,-0.29024 10.116809,-0.29024 9.35263,0 9.3654,4.7e-4 10.01917,0.35016 0.74041,0.39606 1.43384,1.1514 1.75028,1.90652 0.1667,0.39779 0.21403,1.82933 0.21403,6.47299 0,6.63986 3.2e-4,6.63759 -1.07635,7.74249 -1.0408,1.06809 -1.04602,1.06859 -11.13433,1.05015 -5.595829,-0.0102 -9.211319,-0.078 -9.596219,-0.17978 z m 18.436179,-8.57317 0.0418,-5.35685 h -8.81117 -8.811149 v 5.29071 c 0,2.9099 0.0482,5.33894 0.10715,5.39788 0.0589,0.0589 4.00515,0.0887 8.769359,0.0661 l 8.66221,-0.041 z m 8.62686,8.5311 c -0.83856,-0.26151 -1.69687,-1.0408 -2.0976,-1.90449 -0.27034,-0.58264 -0.29487,-1.1283 -0.29807,-6.63171 -0.003,-4.679 0.0436,-6.10908 0.21055,-6.50758 0.31644,-0.75512 1.00987,-1.51046 1.75027,-1.90652 0.65377,-0.34972 0.66654,-0.35016 10.01917,-0.35016 8.69203,0 9.41859,0.0209 10.11681,0.29024 0.88012,0.33959 1.73245,1.25482 1.99989,2.14747 0.24677,0.82365 0.25433,11.74314 0.009,12.64083 -0.24446,0.89361 -1.45204,2.03526 -2.4072,2.27577 -1.13305,0.2853 -18.36921,0.23722 -19.30258,-0.0539 z m 18.51451,-8.5311 0.0418,-5.35685 h -8.81115 -8.81115 v 5.29071 c 0,2.9099 0.0482,5.33894 0.10715,5.39788 0.059,0.0589 4.00515,0.0887 8.76936,0.0661 l 8.66221,-0.041 z m 8.53221,8.51823 c -0.7999,-0.29597 -1.6235,-1.07379 -2.00295,-1.89162 -0.27035,-0.58264 -0.29487,-1.1283 -0.29807,-6.63171 -0.003,-5.068 0.0347,-6.08824 0.24302,-6.58694 0.31268,-0.74854 0.92728,-1.39753 1.73751,-1.83474 0.62581,-0.33768 0.76282,-0.34326 9.58142,-0.38969 6.08012,-0.032 9.21658,0.009 9.78944,0.12789 1.06131,0.22033 2.02198,0.90822 2.48872,1.78207 0.35457,0.66384 0.36234,0.78819 0.40956,6.54938 0.0335,4.08801 -0.007,6.07257 -0.13495,6.53039 -0.23531,0.84536 -0.95801,1.71743 -1.79351,2.16422 -0.65767,0.35169 -0.6811,0.35259 -10.02378,0.38353 -7.91079,0.0262 -9.46265,-0.005 -9.99641,-0.20278 z m 18.60916,-8.51823 0.0418,-5.35685 h -8.81115 -8.81115 v 5.29071 c 0,2.9099 0.0482,5.33894 0.10715,5.39788 0.059,0.0589 4.00515,0.0887 8.76936,0.0661 l 8.66221,-0.041 z m -99.242709,-11.0166 c -1.48109,-0.34952 -2.17877,-0.87079 -2.71939,-2.03176 -0.36936,-0.79319 -0.37259,-0.84988 -0.37412,-6.57501 -0.001,-3.87232 0.0581,-5.97414 0.17962,-6.3796 0.24113,-0.80484 0.96913,-1.66251 1.77852,-2.09534 0.65552,-0.35054 0.7098,-0.35279 9.70633,-0.40278 10.13065,-0.0563 10.34961,-0.039 11.38954,0.89855 1.22554,1.10491 1.2214,1.07841 1.22533,7.84681 0.003,5.068 -0.0347,6.08823 -0.24301,6.58694 -0.31269,0.74854 -0.92729,1.39754 -1.73752,1.83474 -0.62777,0.33875 -0.73709,0.34287 -9.76137,0.36748 -5.01956,0.0137 -9.26933,-0.009 -9.44393,-0.05 z m 17.8186,-8.74423 -0.0418,-5.35684 h -8.72968 -8.72968 l -0.0418,5.35684 -0.0418,5.35685 h 8.81326 8.81326 z m 8.90194,8.63211 c -1.26273,-0.3464 -2.09497,-1.11634 -2.49359,-2.30693 -0.2439,-0.72846 -0.24842,-11.74524 -0.005,-12.63435 0.24446,-0.89362 1.45205,-2.03527 2.4072,-2.27578 0.99811,-0.25133 18.088299,-0.25955 19.082609,-0.009 0.87438,0.22017 1.93802,1.11824 2.31975,1.95865 0.26731,0.58852 0.2927,1.15822 0.29588,6.64058 0.003,5.068 -0.0347,6.08823 -0.24301,6.58694 -0.31269,0.74854 -0.92729,1.39753 -1.73752,1.83473 -0.62727,0.33847 -0.74448,0.34298 -9.76137,0.37522 -6.993299,0.025 -9.299049,-0.0147 -9.864759,-0.16989 z m 18.239429,-8.63211 -0.0418,-5.35684 h -8.72966 -8.729679 l -0.0418,5.35684 -0.0418,5.35685 h 8.813259 8.81326 z m 9.0847,8.70319 c -1.17921,-0.24444 -2.16311,-1.04014 -2.61049,-2.11115 -0.20832,-0.49871 -0.24596,-1.51894 -0.24302,-6.58694 0.003,-5.48235 0.0286,-6.05206 0.29589,-6.64058 0.38172,-0.8404 1.44536,-1.73848 2.31975,-1.95865 0.99431,-0.25037 18.08449,-0.24215 19.08261,0.009 0.95515,0.24051 2.16273,1.38216 2.4072,2.27577 0.24557,0.89769 0.23801,11.81718 -0.009,12.64083 -0.2511,0.83808 -1.09668,1.78347 -1.91523,2.14126 -0.63377,0.27703 -1.27076,0.29806 -9.72531,0.32095 -4.97592,0.0135 -9.29711,-0.0274 -9.60265,-0.0907 z m 18.05667,-8.70319 -0.0418,-5.35684 h -8.72966 -8.72968 l -0.0418,5.35684 -0.0418,5.35685 h 8.81327 8.81326 z m 9.08469,8.70012 c -1.17365,-0.23681 -2.16232,-1.03521 -2.61048,-2.10808 -0.20833,-0.49871 -0.24596,-1.51894 -0.24302,-6.58694 0.004,-6.7684 -1.6e-4,-6.7419 1.22534,-7.84681 1.03992,-0.93757 1.25889,-0.95484 11.38953,-0.89855 8.99653,0.05 9.05081,0.0523 9.70634,0.40278 0.80939,0.43283 1.53739,1.2905 1.77852,2.09534 0.12148,0.40546 0.18066,2.50728 0.17962,6.3796 -0.002,5.77215 -0.002,5.77531 -0.38512,6.59875 -0.46463,0.99794 -1.36597,1.70213 -2.48617,1.94237 -0.89038,0.19095 -17.61873,0.21038 -18.55456,0.0215 z m 18.05668,-8.70012 -0.0418,-5.35684 h -8.72969 -8.72968 l -0.0418,5.35684 -0.0418,5.35685 h 8.81326 8.81327 z M 64.312101,121.49057 c -0.76405,-0.37042 -1.39118,-1.10186 -1.70952,-1.99392 -0.33671,-0.94352 -0.31692,-11.78077 0.0233,-12.77938 0.31007,-0.91003 1.38067,-1.93565 2.2707,-2.17531 0.44135,-0.11884 3.5865,-0.15953 9.97416,-0.12903 l 9.32955,0.0446 0.73141,0.42999 c 0.73379,0.43137 1.15922,0.92378 1.5298,1.77066 0.29718,0.67914 0.28373,12.28902 -0.0151,13.00203 -0.32834,0.78353 -1.05398,1.55673 -1.76342,1.87898 -0.59987,0.27248 -1.25877,0.29109 -10.16474,0.28695 -9.32534,-0.004 -9.53748,-0.0113 -10.20621,-0.33551 z m 19.01526,-8.38412 v -5.39787 l -8.76936,0.041 -8.76936,0.041 -0.0418,5.35685 -0.0418,5.35685 h 8.81115 8.81115 z m 8.41698,8.55444 c -0.76955,-0.30713 -1.47322,-0.98917 -1.84557,-1.78886 -0.37738,-0.81047 -0.37817,-0.8247 -0.37624,-6.76423 0.002,-5.41726 0.0279,-6.0091 0.29109,-6.58694 0.37183,-0.81644 1.41775,-1.75744 2.1925,-1.97258 0.39531,-0.10976 3.81449,-0.1687 9.820809,-0.16928 l 9.21436,-0.001 0.80682,0.40206 c 0.80403,0.40066 1.45123,1.13576 1.78618,2.02878 0.23876,0.63655 0.22672,11.85799 -0.0136,12.66004 -0.24855,0.82959 -0.95446,1.64034 -1.7734,2.03678 -0.6724,0.32551 -0.86282,0.33152 -10.19805,0.32164 -5.854809,-0.006 -9.663619,-0.0702 -9.904919,-0.16653 z m 18.724389,-8.55444 v -5.39787 l -8.76936,0.041 -8.769359,0.041 -0.0418,5.35685 -0.0418,5.35685 h 8.811149 8.81115 z m 8.1309,8.39705 c -0.84195,-0.41918 -1.53477,-1.2408 -1.77364,-2.1034 -0.12629,-0.45606 -0.16767,-2.48637 -0.13494,-6.62249 l 0.0472,-5.96479 0.47861,-0.77385 c 0.34833,-0.56319 0.70972,-0.89458 1.32758,-1.21735 l 0.84896,-0.44351 9.2274,10e-4 c 6.01551,6e-4 9.43849,0.0595 9.83384,0.16929 0.77476,0.21514 1.82068,1.15613 2.19251,1.97257 0.2631,0.57769 0.28946,1.17206 0.29264,6.59816 l 0.004,5.96327 -0.43649,0.86077 c -0.28583,0.56368 -0.67399,1.02545 -1.12461,1.33791 l -0.68813,0.47715 -9.70813,0.0415 c -9.62465,0.0411 -9.71396,0.0386 -10.38626,-0.29612 z m 18.9729,-8.35603 -0.0418,-5.35685 -8.76936,-0.041 -8.76936,-0.041 v 5.39787 5.39788 h 8.81114 8.81116 z m 8.21172,8.38909 c -0.34918,-0.16167 -0.82751,-0.49936 -1.06294,-0.75044 -0.90473,-0.96482 -0.92107,-1.10066 -0.92107,-7.655 0,-4.4762 0.051,-6.13481 0.19897,-6.473 0.37058,-0.84688 0.796,-1.33929 1.5298,-1.77066 l 0.73141,-0.42999 9.32955,-0.0446 c 6.38766,-0.0305 9.5328,0.0102 9.97415,0.12903 0.89003,0.23966 1.96063,1.26528 2.27071,2.17531 0.34025,0.99861 0.36004,11.83586 0.0233,12.77938 -0.32463,0.90969 -0.95152,1.62783 -1.74763,2.00205 -0.71097,0.3342 -0.84891,0.33873 -10.20605,0.33529 -8.89396,-0.003 -9.52492,-0.0218 -10.12023,-0.29743 z m 18.92965,-8.38909 -0.0418,-5.35685 -8.76936,-0.041 -8.76937,-0.041 v 5.39787 5.39788 h 8.81115 8.81116 z M 64.518871,101.85989 c -0.81644,-0.37183 -1.75744,-1.41775 -1.97258,-2.192497 -0.2165,-0.7797 -0.22975,-11.66999 -0.0151,-12.41842 0.2662,-0.92817 0.94011,-1.72759 1.81875,-2.15747 l 0.82191,-0.40212 9.60532,0.0433 9.60531,0.0433 0.6615,0.43784 c 0.36382,0.24081 0.85853,0.73557 1.09934,1.09946 l 0.43784,0.66162 v 6.46581 6.46583 l -0.47715,0.688237 c -0.31253,0.45078 -0.77412,0.83882 -1.33791,1.12472 l -0.86077,0.43648 -9.37578,-0.004 c -8.72747,-0.003 -9.41969,-0.0234 -10.01068,-0.29263 z m 18.80849,-8.433557 v -5.39653 h -8.80904 -8.80904 v 5.39653 5.39653 h 8.80904 8.80904 z m 8.07569,8.286177 c -0.61809,-0.32289 -0.97912,-0.65403 -1.32758,-1.21764 l -0.47861,-0.774147 v -6.29439 -6.29439 l 0.47861,-0.77414 c 0.34846,-0.56361 0.70949,-0.89475 1.32758,-1.21765 l 0.84896,-0.4435 h 9.322759 c 6.54749,0 9.48336,0.0538 9.86228,0.18064 0.89943,0.30115 1.58704,0.9266 1.99264,1.81253 l 0.38306,0.83672 -0.0451,6.09737 -0.0451,6.09738 -0.47861,0.773857 c -0.34834,0.56321 -0.70971,0.89458 -1.32758,1.21736 l -0.84897,0.44351 h -9.40767 -9.407679 z m 19.065679,-8.286177 v -5.39653 h -8.80904 -8.809039 v 5.39653 5.39653 h 8.809039 8.80904 z m 8.07569,8.286177 c -0.61787,-0.32278 -0.97925,-0.65415 -1.32758,-1.21736 l -0.47861,-0.773857 -0.0451,-6.09738 -0.0451,-6.09737 0.38307,-0.83672 c 0.4056,-0.88593 1.0932,-1.51138 1.99263,-1.81253 0.37892,-0.12686 3.31479,-0.18064 9.86228,-0.18064 h 9.32277 l 0.84896,0.4435 c 0.61808,0.3229 0.97912,0.65404 1.32757,1.21765 l 0.47862,0.77414 v 6.29439 6.29439 l -0.47862,0.774147 c -0.34845,0.56361 -0.70949,0.89475 -1.32757,1.21764 l -0.84896,0.44351 h -9.40769 -9.40768 z m 19.06568,-8.286177 v -5.39653 h -8.80904 -8.80904 v 5.39653 5.39653 h 8.80904 8.80904 z m 8.08456,8.293197 c -0.5638,-0.28589 -1.02539,-0.67393 -1.33791,-1.12472 l -0.47715,-0.688237 v -6.46582 -6.46582 l 0.43783,-0.66162 c 0.24082,-0.36389 0.73552,-0.85865 1.09934,-1.09946 l 0.6615,-0.43784 9.60531,-0.0433 9.60532,-0.0433 0.82191,0.40212 c 0.87864,0.42988 1.55255,1.2293 1.81875,2.15747 0.21465,0.74843 0.2014,11.63873 -0.0151,12.41842 -0.21514,0.774747 -1.15613,1.820667 -1.97257,2.192497 -0.59098,0.26916 -1.2832,0.28939 -10.01067,0.29264 l -9.37578,0.004 z m 19.05681,-8.293197 v -5.39653 h -8.80904 -8.80904 v 5.39653 5.39653 h 8.80904 8.80904 z m 14.72485,-22.18132 c -0.056,-5.55164 -0.0917,-6.23545 -0.36609,-7.02343 -0.73078,-2.09857 -2.62053,-3.98079 -4.61531,-4.59691 -0.94161,-0.29083 -1.46968,-0.32345 -5.23661,-0.32345 h -4.1894 v 4.05249 c 0,4.33268 -0.066,4.77241 -0.84086,5.60312 -0.78685,0.84354 -1.33419,0.97873 -3.96274,0.97873 -2.4239,0 -2.43893,-0.002 -3.17335,-0.46798 -0.45593,-0.28914 -0.87722,-0.72888 -1.10245,-1.15073 -0.34934,-0.65432 -0.36657,-0.85629 -0.41382,-4.84919 l -0.0493,-4.16644 h -4.27587 -4.27587 v 4.11642 c 0,2.5164 -0.0655,4.2901 -0.16846,4.56325 -0.22847,0.60601 -1.06897,1.46843 -1.69142,1.73551 -0.35652,0.15298 -1.20874,0.21916 -2.8224,0.21916 -1.61367,0 -2.46587,-0.0662 -2.82241,-0.21916 -0.62243,-0.26708 -1.46294,-1.1295 -1.69142,-1.73551 -0.10297,-0.27315 -0.16845,-2.04685 -0.16845,-4.56325 v -4.11642 h -4.28548 -4.28548 l -0.002,4.00772 c -0.002,3.9137 -0.0106,4.02722 -0.38876,4.83939 -0.28894,0.62062 -0.57839,0.95293 -1.14057,1.30946 -0.75326,0.47772 -0.75357,0.47777 -3.18876,0.47777 -2.62856,0 -3.1759,-0.13519 -3.96275,-0.97873 -0.77487,-0.83071 -0.84086,-1.27044 -0.84086,-5.60312 v -4.05249 h -4.28548 -4.28548 v 4.05249 c 0,4.33268 -0.066,4.77241 -0.84087,5.60312 -0.78684,0.84354 -1.33418,0.97873 -3.96274,0.97873 -2.43519,0 -2.4355,-5e-5 -3.1888,-0.47777 -0.56218,-0.35653 -0.85163,-0.68884 -1.14057,-1.30946 -0.37813,-0.81217 -0.38724,-0.92569 -0.38876,-4.83939 l -0.002,-4.00772 h -4.285479 -4.28548 v 4.11642 c 0,2.5164 -0.0655,4.2901 -0.16845,4.56325 -0.22848,0.60601 -1.06898,1.46843 -1.69143,1.73551 -0.62355,0.26756 -4.87187,0.30637 -5.55001,0.0507 -0.60602,-0.22847 -1.46843,-1.06898 -1.73552,-1.69142 -0.1677,-0.39083 -0.21915,-1.48085 -0.21915,-4.6426 v -4.13186 h -4.27587 -4.27587 l -0.0493,4.16644 c -0.0472,3.9929 -0.0645,4.19488 -0.41382,4.8492 -0.22522,0.42184 -0.64652,0.86159 -1.10244,1.15073 -0.73442,0.46575 -0.74945,0.46797 -3.17335,0.46797 -2.62856,0 -3.1759,-0.13518 -3.96274,-0.97873 -0.77488,-0.83071 -0.84087,-1.27044 -0.84087,-5.60311 v -4.0525 h -4.1894 c -3.76693,0 -4.295,0.0326 -5.236603,0.32345 -1.994781,0.61613 -3.88453,2.49834 -4.61531,4.59692 -0.274394,0.78797 -0.310037,1.47179 -0.36609,7.02342 l -0.06186,6.15046 h 64.308052 64.30804 z M 71.543681,58.150492 l -0.0411,-8.451917 -1.38881,-0.04586 -1.38882,-0.04586 v 8.497778 8.49778 h 1.42989 1.42988 z m 17.97382,-0.03968 v -8.491601 h -1.34914 -1.34913 v 8.491598 8.491604 h 1.34913 1.34914 z m 18.094239,0 v -8.491601 h -1.42849 -1.42849 v 8.491598 8.491604 h 1.42849 1.42849 z m 18.09425,0 v -8.491601 h -1.42849 -1.42849 v 8.491598 8.491604 h 1.42849 1.42849 z m 17.93552,0 v -8.491601 h -1.34913 -1.34913 v 8.491598 8.491604 h 1.34913 1.34913 z m 18.09425,-0.0062 v -8.497783 l -1.38881,0.04586 -1.38881,0.04586 -0.0411,8.451918 -0.0411,8.451916 h 1.42989 1.42988 z"
       id="path302"
       sodipodi:nodetypes="cssscssscccsscsscccssscccsscccccsscsscccccccssssscccccsscccssccccsscsscsssscsssscsccssscccssssscsssssssssccccccsssccssssssssssssccccsssccsscssscsssssccccscscccscssscssssscccccscsccsscssssssssssccccccccccscsssccsscccccccccccsscssssssssscccccccccsscssssccsssccccccccccsssccsssscccccccccccccscssccsssssccccccccccccsscssccssccsscsccccccccccccssssccsssscccccccccccccssscccsscccsscccccccccccccsscccsscscscccsscccscccccccccsscccssscsscccsscccsccccccccccscccsscccsssscccccccccccccssscsssssscccsssssssccccssssscccsssssscccsssssscccsssssscsssccccccccccccccccccccccccccccccccccccccccccccccccccccccccccc" /></g></svg>
